<?xml version="1.0" encoding="utf-8"?>
<!-- Generator: Adobe Illustrator 25.2.1, SVG Export Plug-In . SVG Version: 6.00 Build 0)  -->
<svg version="1.1" id="Layer_1" xmlns="http://www.w3.org/2000/svg" xmlns:xlink="http://www.w3.org/1999/xlink" x="0px" y="0px"
	 viewBox="0 0 2609 501" style="enable-background:new 0 0 2609 501;" xml:space="preserve">
<style type="text/css">
	.st0{fill:#FFFFFF;}
</style>
<g>
	<path class="st0" d="M0.9,278.8l33.5-122.7h33.5v-30.8c0-7.4,0.2-12.9,0.7-16.4c0.4-3.5,2-9.2,4.6-17.1C81.8,62.5,97.8,40,121,24.2
		c23.2-15.7,53.1-23.6,89.9-23.6c24.1,0,49,3.1,74.8,9.2l18.4,4.6l-31.5,117.5c-4.4-3.4-10.1-5.8-17.1-7.2h-4.6h-3.3h-3.9
		c-10.9,2.7-16.4,8.5-16.4,17.4v14.1h66.9l-32.8,122.7h-33.5v208H67.8v-208H0.9z"/>
	<path class="st0" d="M540.2,187v-30.8h151.6v330.7H540.2v-34.1c-10.9,13.6-24.9,24.1-42,31.5c-17.1,7.4-36.7,11.2-59.1,11.2
		c-41.6,0-75.5-14.2-101.7-42.7c-28.4-30.6-42.7-72.6-42.7-126c0-53.4,14-96.7,42-129.9c28-33.2,62.6-49.9,103.7-49.9
		c9.2,0,19.5,1.1,30.8,3.3c11.4,2.2,23.4,6.6,36.1,13.1C520.1,169.9,531.1,177.8,540.2,187z M487.8,362.8c1.7,0.4,3.3,0.7,4.6,0.7
		c1.3,0,2.2,0,2.6,0c10.1,0,18.5-4.3,25.3-12.8c6.8-8.5,10.2-20.4,10.2-35.8c0-12.2-2.5-22-7.5-29.2c-5-7.2-12.1-11.9-21.3-14.1
		c-1.8-0.4-4.2-0.7-7.2-0.7c-20.6,0-32.6,13.1-36.1,39.4v8.5c0,12.7,2.5,22.9,7.5,30.5C470.8,357,478.1,361.5,487.8,362.8z"/>
	<path class="st0" d="M739.1,486.8V228.2l156.2-88.6v55.3l7.9-9.8c15.7-18.4,34.7-30.2,57-35.4c10-2.2,19.2-3.3,27.5-3.3
		c33.2,0,60.9,15.1,83.2,45.3l9.2,15.1l3.9-5.9l4.6-5.9l9.8-11.8c18.8-18.8,40-30.2,63.5-34.1c8.3-1.7,17-2.6,26.2-2.6
		c27.1,0,48.9,8.1,65.5,24.3c16.6,16.2,27.3,39.8,32.1,70.9l1.3,19.7v225.7h-155.5V305.7v-11.8c0-11.8-5.3-17.7-16-17.7
		c-1.8,0-4.4,0.4-8,1.3c-11.1,3.1-16.7,13.3-16.7,30.8v178.5H934.6V309v-4.6v-7.9c0-8.7-2.4-14.5-7.2-17.4c-4.8-2.8-9-4.3-12.5-4.3
		c-4.4,0-8.8,1.6-13.1,4.9c-4.4,3.3-6.6,9.7-6.6,19.4v10.5v177.2H739.1z"/>
	<path class="st0" d="M1294.2,278.8L1514.7,2.4v153.7h76.8l-42.7,122.7h-34.1v208h-160.8v-208H1294.2z"/>
	<path class="st0" d="M1586.8,486.8V229.5l150.9-90.6v52l7.9-7.2c25.8-23.6,56.6-35.4,92.5-35.4c4.8,0,9,0,12.5,0
		c3.5,0,8.1,0.7,13.8,2c5.7,1.3,10.6,2.4,14.8,3.3c4.2,0.9,9.9,2.9,17.4,5.9L1846,311.6c-2.6-2.6-6.3-5.5-11.2-8.5
		c-4.8-3.1-9.7-5.6-14.8-7.5c-5-2-11.3-3-18.7-3c-13.6,0-25,4-34.4,12.1c-9.4,8.1-15,17.5-16.7,28.2c-1.8,10.7-2.6,22.2-2.6,34.5
		v119.4H1586.8z"/>
	<path class="st0" d="M2242.3,276.9l-183.7,93.2l3.3,4.6c7,7,14.2,10.5,21.7,10.5c3.1,0,6.8-0.9,11.2-2.6c4.4-1.7,8.5-4.8,12.5-9.2
		l1.3-2.6l2-2.6l102.4,61.7c-13.1,17.5-29.3,32.1-48.6,43.6c-19.3,11.6-40.5,19.6-63.6,23.9c-12.3,2.2-23.6,3.3-34.1,3.3
		c-31.9,0-61.5-8.1-88.6-24.3c-57.7-32.8-86.6-82-86.6-147.6c0-10.1,1.1-21.7,3.3-34.8c5.7-37.2,21.4-68.9,47.2-95.1
		c25.8-26.2,57.3-42.9,94.5-49.9c11.4-1.7,19.4-2.7,23.9-3c4.6-0.2,8.2-0.3,10.8-0.3c11.8,0,23.4,1.3,34.8,3.9
		c62.6,13.6,106.1,49.9,130.6,108.9L2242.3,276.9z M2084.9,253.2c-8.8,0-15.1,0.7-19,2c-13.1,3.9-22.8,10.7-28.9,20.4
		c-6.1,9.6-9.2,19.3-9.2,28.9c0,3.5,0.9,8.3,2.6,14.4L2121,273c-4.4-5.7-9.6-10.4-15.7-14.1C2099.1,255.1,2092.3,253.2,2084.9,253.2
		z"/>
	<path class="st0" d="M2609.1,276.9l-183.7,93.2l3.3,4.6c7,7,14.2,10.5,21.7,10.5c3.1,0,6.8-0.9,11.2-2.6c4.4-1.7,8.5-4.8,12.5-9.2
		l1.3-2.6l2-2.6l102.4,61.7c-13.1,17.5-29.3,32.1-48.6,43.6c-19.3,11.6-40.5,19.6-63.6,23.9c-12.3,2.2-23.6,3.3-34.1,3.3
		c-31.9,0-61.5-8.1-88.6-24.3c-57.7-32.8-86.6-82-86.6-147.6c0-10.1,1.1-21.7,3.3-34.8c5.7-37.2,21.4-68.9,47.2-95.1
		c25.8-26.2,57.3-42.9,94.5-49.9c11.4-1.7,19.4-2.7,23.9-3c4.6-0.2,8.2-0.3,10.8-0.3c11.8,0,23.4,1.3,34.8,3.9
		c62.6,13.6,106.1,49.9,130.6,108.9L2609.1,276.9z M2451.7,253.2c-8.8,0-15.1,0.7-19,2c-13.1,3.9-22.8,10.7-28.9,20.4
		c-6.1,9.6-9.2,19.3-9.2,28.9c0,3.5,0.9,8.3,2.6,14.4l90.6-45.9c-4.4-5.7-9.6-10.4-15.7-14.1
		C2465.9,255.1,2459.1,253.2,2451.7,253.2z"/>
</g>
</svg>
