<?xml version="1.0" encoding="utf-8"?>
<!-- Generator: Adobe Illustrator 25.2.1, SVG Export Plug-In . SVG Version: 6.00 Build 0)  -->
<svg version="1.1" id="Layer_1" xmlns="http://www.w3.org/2000/svg" xmlns:xlink="http://www.w3.org/1999/xlink" x="0px" y="0px"
	 viewBox="0 0 1552 501" style="enable-background:new 0 0 1552 501;" xml:space="preserve">
<style type="text/css">
	.st0{fill:#FFFFFF;}
</style>
<g>
	<g>
		<path class="st0" d="M0.1,227.3L179.2,2.8v124.8h62.4l-34.6,99.7h-27.7v168.9H48.6V227.3H0.1z"/>
		<path class="st0" d="M518.7,225.7l-149.2,75.7l2.7,3.7c5.7,5.7,11.5,8.5,17.6,8.5c2.5,0,5.5-0.7,9.1-2.1c3.5-1.4,6.9-3.9,10.1-7.5
			l1.1-2.1l1.6-2.1l83.1,50.1c-10.7,14.2-23.8,26-39.4,35.4c-15.6,9.4-32.9,15.9-51.7,19.5c-10,1.8-19.2,2.7-27.7,2.7
			c-25.9,0-49.9-6.6-71.9-19.7c-46.9-26.6-70.3-66.6-70.3-119.9c0-8.2,0.9-17.6,2.7-28.2c4.6-30.2,17.4-56,38.4-77.3
			c21-21.3,46.5-34.8,76.7-40.5c9.2-1.4,15.7-2.2,19.5-2.4c3.7-0.2,6.7-0.3,8.8-0.3c9.6,0,19,1.1,28.2,3.2
			c50.8,11,86.1,40.5,106,88.5L518.7,225.7z M390.8,206.5c-7.1,0-12.3,0.5-15.5,1.6c-10.7,3.2-18.5,8.7-23.4,16.5
			c-5,7.8-7.5,15.6-7.5,23.4c0,2.8,0.7,6.8,2.1,11.7l73.5-37.3c-3.6-4.6-7.8-8.4-12.8-11.5C402.3,208,396.8,206.5,390.8,206.5z"/>
		<path class="st0" d="M729.1,154.3v-26.6h123.1v235.5c0,42.6-18.1,76.1-54.4,100.5c-36.2,24.3-89.2,36.5-158.8,36.5
			c-18.8,0-36.4-2.2-52.8-6.7c-16.3-4.4-33.2-10.9-50.6-19.5l46.9-83.7c6,4.3,12.3,7.6,18.7,10.1c6.4,2.5,14.6,4.8,24.5,6.9
			l23.4,3.2c27.4,0,47.5-3.6,60.5-10.7c13-7.1,19.5-17.2,19.5-30.4v-16c-7.8,10.7-18.9,19.3-33.3,25.8c-14.4,6.6-30.6,9.9-48.8,9.9
			c-2.8,0-5.7,0-8.5,0c-4.3-0.7-7.5-1.1-9.6-1.1c-28.4-3.5-51.7-17.1-69.8-40.5s-27.2-53.1-27.2-89c0-8.5,0.5-17.4,1.6-26.6
			c3.5-28.8,13.4-52.6,29.6-71.4c16.2-18.8,36.7-31.1,61.6-36.8c3.9-1.1,8-1.8,12.3-2.1c4.3-0.3,9.2-0.5,14.9-0.5
			c6,0,12.1,0.5,18.1,1.6C694.5,127.1,714.2,137.6,729.1,154.3z M665.2,266.7c2.5,15.6,9.9,25,22.4,28.2c1.4,0.4,3.7,0.5,6.9,0.5
			c16.7,0,26.1-10.7,28.2-32v-13.3c-1.8-13.9-7.8-23.1-18.1-27.7c-3.2-1.1-6.4-1.6-9.6-1.6c-17.1,0-27,10.8-29.8,32.5v7.5V266.7z"/>
		<path class="st0" d="M890.6,396.2V72.1l130.6-72v218.1l47.4-90.6h152.9l-91.7,125.2l106.6,143.4h-163.1l-52.2-92.2v92.2H890.6z"/>
		<path class="st0" d="M1428.3,152.7v-25h123.1v268.6h-123.1v-27.7c-8.9,11-20.3,19.5-34.1,25.6s-29.8,9.1-48,9.1
			c-33.8,0-61.3-11.5-82.6-34.6c-23.1-24.9-34.6-59-34.6-102.3c0-43.3,11.4-78.5,34.1-105.5c22.7-27,50.8-40.5,84.2-40.5
			c7.5,0,15.8,0.9,25,2.7c9.2,1.8,19,5.3,29.3,10.7C1412,138.8,1420.9,145.2,1428.3,152.7z M1385.7,295.5c1.4,0.4,2.7,0.5,3.7,0.5
			s1.8,0,2.1,0c8.2,0,15-3.5,20.5-10.4c5.5-6.9,8.3-16.6,8.3-29c0-9.9-2-17.9-6.1-23.7c-4.1-5.9-9.9-9.7-17.3-11.5
			c-1.4-0.3-3.4-0.5-5.9-0.5c-16.7,0-26.5,10.7-29.3,32v6.9c0,10.3,2,18.6,6.1,24.8C1371.9,290.8,1377.9,294.4,1385.7,295.5z"/>
	</g>
</g>
</svg>
